# xmcd
#
# Track frame offsets:
#	150
#	20381
#	45423
#	72048
#	94693
#	111741
#	131959
#	157139
#	186080
#	202243
#	231583
#	247678
#	274015
#	301516
#
# Disc length: 4327 seconds
#
# Revision: 0
# Processed by: cddbd v1.5.1PL0 Copyright (c) Steve Scherf et al.
# Submitted via: audiograbber 1.83.01
#
DISCID=c410e50e
DTITLE=Various Artist - Cafe des Artistes
DYEAR=2002
DGENRE=Dance
TTITLE0=Desmond Williams - Dread A The Roughest
TTITLE1=D Note - The Garden Of Earthly Delights (Ballistic Barrio Boom mix)
TTITLE2=Projections - Inner City Sides (Parts 1 and 2)
TTITLE3=Suba - Felicidade (Buscemi mix)
TTITLE4=Nuspirit Helsinki - Change (radio mix)
TTITLE5=Zuco 103 - Outro Lado (NYC12 mix)
TTITLE6=Zeb - Brazilenco
TTITLE7=Fila Brazillia - DNA 
TTITLE8=Bit Crusher - Flamingos
TTITLE9=Mr. Scruff feat. Feebie - Honeydew
TTITLE10=Thunderball - Domino
TTITLE11=SlowSupreme - Flesh
TTITLE12=Homecookin - Lazy Days
TTITLE13=Aim - What Do People Do All Day
EXTD=Compiled and Mixed by Mick Cole
EXTT0=
EXTT1=
EXTT2=
EXTT3=
EXTT4=
EXTT5=
EXTT6=
EXTT7=
EXTT8=
EXTT9=
EXTT10=
EXTT11=
EXTT12=
EXTT13=
PLAYORDER=
